{
  "accessors": [
    {
      "bufferView": 2,
      "componentType": 5126,
      "count": 788,
      "max": [
        -0.7623453736305237,
        1.9622257947921753,
        0.0021994442213326693
      ],
      "min": [
        -1.2566735744476318,
        -1.9622257947921753,
        -0.0980619266629219
      ],
      "type": "VEC3"
    },
    {
      "bufferView": 2,
      "byteOffset": 9456,
      "componentType": 5126,
      "count": 788,
      "max": [
        0.9999319911003113,
        0.9991727471351624,
        0.9996550679206848
      ],
      "min": [
        -0.9991657733917236,
        -1.0,
        -0.9998490810394287
      ],
      "type": "VEC3"
    },
    {
      "bufferView": 1,
      "componentType": 5126,
      "count": 788,
      "max": [
        0.1476035714149475,
        1.000020980834961
      ],
      "min": [
        0.0,
        0.0
      ],
      "type": "VEC2"
    },
    {
      "bufferView": 0,
      "componentType": 5125,
      "count": 1713,
      "type": "SCALAR"
    },
    {
      "bufferView": 2,
      "byteOffset": 18912,
      "componentType": 5126,
      "count": 786,
      "max": [
        0.03688100725412369,
        1.7029712200164795,
        -0.03425650671124458
      ],
      "min": [
        -0.8211908340454102,
        -1.7029712200164795,
        -0.0856834426522255
      ],
      "type": "VEC3"
    },
    {
      "bufferView": 2,
      "byteOffset": 28344,
      "componentType": 5126,
      "count": 786,
      "max": [
        0.9977883696556091,
        0.9999977350234985,
        0.9997801780700684
      ],
      "min": [
        -0.9983417391777039,
        -0.9999982118606567,
        -0.9998603463172913
      ],
      "type": "VEC3"
    },
    {
      "bufferView": 1,
      "byteOffset": 6304,
      "componentType": 5126,
      "count": 786,
      "max": [
        0.5716173648834229,
        0.9998036026954651
      ],
      "min": [
        0.0,
        0.0
      ],
      "type": "VEC2"
    },
    {
      "bufferView": 0,
      "byteOffset": 6852,
      "componentType": 5125,
      "count": 1836,
      "type": "SCALAR"
    },
    {
      "bufferView": 2,
      "byteOffset": 37776,
      "componentType": 5126,
      "count": 62,
      "max": [
        0.01715797185897827,
        1.6788585186004639,
        -0.050547078251838684
      ],
      "min": [
        -1.1624395847320557,
        -1.6789214611053467,
        -0.08468157798051834
      ],
      "type": "VEC3"
    },
    {
      "bufferView": 2,
      "byteOffset": 38520,
      "componentType": 5126,
      "count": 62,
      "max": [
        -0.008209452964365482,
        0.013956883922219276,
        0.9998689293861389
      ],
      "min": [
        -0.008209634572267532,
        -0.013956106267869473,
        0.9998689293861389
      ],
      "type": "VEC3"
    },
    {
      "bufferView": 1,
      "byteOffset": 12592,
      "componentType": 5126,
      "count": 62,
      "max": [
        0.5166216492652893,
        0.6041490435600281
      ],
      "min": [
        7.927490514703095e-05,
        -0.00039054284570738673
      ],
      "type": "VEC2"
    },
    {
      "bufferView": 0,
      "byteOffset": 14196,
      "componentType": 5125,
      "count": 174,
      "type": "SCALAR"
    },
    {
      "bufferView": 2,
      "byteOffset": 39264,
      "componentType": 5126,
      "count": 918,
      "max": [
        -0.29898351430892944,
        0.392556369304657,
        -0.04773373901844025
      ],
      "min": [
        -0.6885040402412415,
        -0.392556369304657,
        -0.2940889596939087
      ],
      "type": "VEC3"
    },
    {
      "bufferView": 2,
      "byteOffset": 50280,
      "componentType": 5126,
      "count": 918,
      "max": [
        0.9789069890975952,
        0.9954157471656799,
        0.9999480843544006
      ],
      "min": [
        -0.9789067506790161,
        -0.9954158067703247,
        -0.9999481439590454
      ],
      "type": "VEC3"
    },
    {
      "bufferView": 1,
      "byteOffset": 13088,
      "componentType": 5126,
      "count": 918,
      "max": [
        0.12721598148345947,
        0.9241520166397095
      ],
      "min": [
        6.141750782262534e-05,
        6.141750782262534e-05
      ],
      "type": "VEC2"
    },
    {
      "bufferView": 0,
      "byteOffset": 14892,
      "componentType": 5125,
      "count": 3006,
      "type": "SCALAR"
    },
    {
      "bufferView": 2,
      "byteOffset": 61296,
      "componentType": 5126,
      "count": 578,
      "max": [
        -0.4620743989944458,
        0.4056169092655182,
        -0.04066959396004677
      ],
      "min": [
        -0.7511125206947327,
        -0.4056169092655182,
        -0.19023224711418152
      ],
      "type": "VEC3"
    },
    {
      "bufferView": 2,
      "byteOffset": 68232,
      "componentType": 5126,
      "count": 578,
      "max": [
        0.9792917966842651,
        0.9776269197463989,
        1.0
      ],
      "min": [
        -0.9886937141418457,
        -0.9776270985603333,
        -1.0
      ],
      "type": "VEC3"
    },
    {
      "bufferView": 1,
      "byteOffset": 20432,
      "componentType": 5126,
      "count": 578,
      "max": [
        0.1740417331457138,
        0.9999384880065918
      ],
      "min": [
        0.04148472100496292,
        6.141750782262534e-05
      ],
      "type": "VEC2"
    },
    {
      "bufferView": 0,
      "byteOffset": 26916,
      "componentType": 5125,
      "count": 1602,
      "type": "SCALAR"
    },
    {
      "bufferView": 2,
      "byteOffset": 75168,
      "componentType": 5126,
      "count": 284,
      "max": [
        -0.09751756489276886,
        1.1719516515731812,
        1.9559446573257446
      ],
      "min": [
        -3.7879910469055176,
        0.30220210552215576,
        -1.9559446573257446
      ],
      "type": "VEC3"
    },
    {
      "bufferView": 2,
      "byteOffset": 78576,
      "componentType": 5126,
      "count": 284,
      "max": [
        0.9999983906745911,
        0.9998918175697327,
        1.0
      ],
      "min": [
        -0.9181699752807617,
        -0.9998447299003601,
        -1.0
      ],
      "type": "VEC3"
    },
    {
      "bufferView": 1,
      "byteOffset": 25056,
      "componentType": 5126,
      "count": 284,
      "max": [
        0.02167423628270626,
        0.9999853372573853
      ],
      "min": [
        1.4716957593918778e-05,
        1.4716957593918778e-05
      ],
      "type": "VEC2"
    },
    {
      "bufferView": 0,
      "byteOffset": 33324,
      "componentType": 5125,
      "count": 972,
      "type": "SCALAR"
    }
  ],
  "asset": {
    "extras": {
      "author": "JiggleSticks (https://sketchfab.com/JiggleSticks)",
      "license": "CC-BY-4.0 (http://creativecommons.org/licenses/by/4.0/)",
      "source": "https://sketchfab.com/3d-models/sun-glasses-low-poly-30ef0899dbf24ca7a831c11c542d1e36",
      "title": "Sun Glasses - Low Poly"
    },
    "generator": "Sketchfab-15.34.0",
    "version": "2.0"
  },
  "bufferViews": [
    {
      "buffer": 0,
      "byteLength": 37212,
      "name": "floatBufferViews",
      "target": 34963
    },
    {
      "buffer": 0,
      "byteLength": 27328,
      "byteOffset": 37212,
      "byteStride": 8,
      "name": "floatBufferViews",
      "target": 34962
    },
    {
      "buffer": 0,
      "byteLength": 81984,
      "byteOffset": 64540,
      "byteStride": 12,
      "name": "floatBufferViews",
      "target": 34962
    }
  ],
  "buffers": [
    {
      "byteLength": 146524,
      "uri": "scene.bin"
    }
  ],
  "extensionsRequired": [
    "KHR_materials_pbrSpecularGlossiness"
  ],
  "extensionsUsed": [
    "KHR_materials_pbrSpecularGlossiness"
  ],
  "materials": [
    {
      "doubleSided": true,
      "extensions": {
        "KHR_materials_pbrSpecularGlossiness": {
          "diffuseFactor": [
            0.00424183,
            0.00424183,
            0.00424183,
            1.0
          ],
          "glossinessFactor": 0.0011540252377591415,
          "specularFactor": [
            0.0,
            0.0,
            0.0
          ]
        }
      },
      "name": "Main_Color"
    },
    {
      "doubleSided": true,
      "extensions": {
        "KHR_materials_pbrSpecularGlossiness": {
          "diffuseFactor": [
            0.102474,
            0.102474,
            0.102474,
            1.0
          ],
          "glossinessFactor": 0.032405124094809445,
          "specularFactor": [
            0.0,
            0.0,
            0.0
          ]
        }
      },
      "name": "Second_Color"
    },
    {
      "doubleSided": true,
      "extensions": {
        "KHR_materials_pbrSpecularGlossiness": {
          "diffuseFactor": [
            0.334322,
            0.334322,
            0.334322,
            1.0
          ],
          "glossinessFactor": 0.1057218991902813,
          "specularFactor": [
            0.0,
            0.0,
            0.0
          ]
        }
      },
      "name": "Material"
    }
  ],
  "meshes": [
    {
      "name": "Glasses_Main Color_0",
      "primitives": [
        {
          "attributes": {
            "NORMAL": 1,
            "POSITION": 0,
            "TEXCOORD_0": 2
          },
          "indices": 3,
          "material": 0,
          "mode": 4
        }
      ]
    },
    {
      "name": "Glass_Second Color_0",
      "primitives": [
        {
          "attributes": {
            "NORMAL": 5,
            "POSITION": 4,
            "TEXCOORD_0": 6
          },
          "indices": 7,
          "material": 1,
          "mode": 4
        }
      ]
    },
    {
      "name": "Glass_Material_0",
      "primitives": [
        {
          "attributes": {
            "NORMAL": 9,
            "POSITION": 8,
            "TEXCOORD_0": 10
          },
          "indices": 11,
          "material": 2,
          "mode": 4
        }
      ]
    },
    {
      "name": "Cylinder_Main Color_0",
      "primitives": [
        {
          "attributes": {
            "NORMAL": 13,
            "POSITION": 12,
            "TEXCOORD_0": 14
          },
          "indices": 15,
          "material": 0,
          "mode": 4
        }
      ]
    },
    {
      "name": "Cylinder_Second Color_0",
      "primitives": [
        {
          "attributes": {
            "NORMAL": 17,
            "POSITION": 16,
            "TEXCOORD_0": 18
          },
          "indices": 19,
          "material": 1,
          "mode": 4
        }
      ]
    },
    {
      "name": "Glasses Astes_Main Color_0",
      "primitives": [
        {
          "attributes": {
            "NORMAL": 21,
            "POSITION": 20,
            "TEXCOORD_0": 22
          },
          "indices": 23,
          "material": 0,
          "mode": 4
        }
      ]
    }
  ],
  "nodes": [
    {
      "children": [
        1
      ],
      "matrix": [
        1.0,
        0.0,
        0.0,
        0.0,
        0.0,
        2.220446049250313e-16,
        -1.0,
        0.0,
        0.0,
        1.0,
        2.220446049250313e-16,
        0.0,
        0.0,
        0.0,
        0.0,
        1.0
      ],
      "name": "Sketchfab_model"
    },
    {
      "children": [
        2
      ],
      "matrix": [
        0.009999999776482582,
        0.0,
        0.0,
        0.0,
        0.0,
        0.0,
        0.009999999776482582,
        0.0,
        0.0,
        -0.009999999776482582,
        0.0,
        0.0,
        0.0,
        0.0,
        0.0,
        1.0
      ],
      "name": "83302536a5f946b78aa07ad65bc66a51.fbx"
    },
    {
      "children": [
        3,
        13,
        15
      ],
      "name": "RootNode"
    },
    {
      "children": [
        4,
        5,
        8,
        11
      ],
      "matrix": [
        9.483531073905779,
        -99.54928986432508,
        1.1102229399218618e-14,
        0.0,
        -4.351438165350885e-06,
        -4.1453835919469384e-07,
        -99.9999999999999,
        0.0,
        99.54928986432498,
        9.483531073905768,
        -4.3711386728180365e-06,
        0.0,
        -5.697057247161865,
        5.317254066467285,
        -7.144200253605959e-07,
        1.0
      ],
      "name": "Glasses"
    },
    {
      "mesh": 0,
      "name": "Glasses_Main Color_0"
    },
    {
      "children": [
        6,
        7
      ],
      "matrix": [
        1.0000001192092896,
        5.5511143786630656e-17,
        1.387779023428394e-17,
        0.0,
        -5.551113716918742e-17,
        1.0,
        -8.86443596962475e-16,
        0.0,
        -1.387779023428399e-17,
        8.864437026347864e-16,
        1.0000001192092896,
        0.0,
        -4.656612873077393e-10,
        -4.440892098500626e-16,
        -6.938893903907228e-18,
        1.0
      ],
      "name": "Glass"
    },
    {
      "mesh": 1,
      "name": "Glass_Second Color_0"
    },
    {
      "mesh": 2,
      "name": "Glass_Material_0"
    },
    {
      "children": [
        9,
        10
      ],
      "matrix": [
        1.0000001192092896,
        5.5511143786630656e-17,
        1.387779023428394e-17,
        0.0,
        -5.551113716918742e-17,
        1.0,
        -8.86443596962475e-16,
        0.0,
        -1.387779023428399e-17,
        8.864437026347864e-16,
        1.0000001192092896,
        0.0,
        -4.656612873077393e-10,
        -4.440892098500626e-16,
        -6.938893903907228e-18,
        1.0
      ],
      "name": "Cylinder"
    },
    {
      "mesh": 3,
      "name": "Cylinder_Main Color_0"
    },
    {
      "mesh": 4,
      "name": "Cylinder_Second Color_0"
    },
    {
      "children": [
        12
      ],
      "matrix": [
        7.549790859875976e-08,
        0.0,
        1.0000001192092864,
        0.0,
        -1.0000001192092733,
        -1.629206990355345e-07,
        7.54979085432486e-08,
        0.0,
        1.6292067972489832e-07,
        -0.9999999999999867,
        -1.2212453270876722e-14,
        0.0,
        -4.656612873077393e-10,
        -4.440892098500626e-16,
        -6.938893903907228e-18,
        1.0
      ],
      "name": "Glasses Astes"
    },
    {
      "mesh": 5,
      "name": "Glasses Astes_Main Color_0"
    },
    {
      "children": [
        14
      ],
      "matrix": [
        77.5569184897841,
        -15.968480436198938,
        130.23208934165544,
        0.0,
        8.220478967088964,
        151.57661218487388,
        13.690121674886626,
        0.0,
        -130.9496589811743,
        0.05777958362954676,
        77.99133632397309,
        0.0,
        -621.5263671875,
        124.1690673828125,
        -742.3611450195313,
        1.0
      ],
      "name": "Camera"
    },
    {
      "name": "Object_14"
    },
    {
      "children": [
        16
      ],
      "matrix": [
        -27.568529639276008,
        -0.7135490595182836,
        -96.12214636215745,
        0.0,
        0.051517935163394916,
        99.99712839016571,
        -0.7570901544962626,
        0.0,
        96.12477365134913,
        -0.2582387292747566,
        -27.5673661664793,
        0.0,
        -117.0645751953125,
        590.38623046875,
        -7.1452436447143555,
        1.0
      ],
      "name": "Light"
    },
    {
      "children": [
        17
      ],
      "matrix": [
        1.0,
        0.0,
        0.0,
        0.0,
        0.0,
        2.220446049250313e-16,
        1.0,
        0.0,
        0.0,
        -1.0,
        2.220446049250313e-16,
        0.0,
        0.0,
        0.0,
        0.0,
        1.0
      ],
      "name": "Object_16"
    },
    {
      "name": "Object_17"
    }
  ],
  "scene": 0,
  "scenes": [
    {
      "name": "Sketchfab_Scene",
      "nodes": [
        0
      ]
    }
  ]
}
