{
  "accessors": [
    {
      "bufferView": 2,
      "componentType": 5126,
      "count": 340,
      "max": [
        0.06985969096422195,
        0.040150340646505356,
        0.12464884668588638
      ],
      "min": [
        -0.06985969096422195,
        0.001886972226202488,
        0.12026984244585037
      ],
      "type": "VEC3"
    },
    {
      "bufferView": 2,
      "byteOffset": 4080,
      "componentType": 5126,
      "count": 340,
      "max": [
        0.9878391027450562,
        0.9996697902679443,
        0.9998217821121216
      ],
      "min": [
        -0.9878391027450562,
        -0.9982970356941223,
        -0.9998162984848022
      ],
      "type": "VEC3"
    },
    {
      "bufferView": 3,
      "componentType": 5126,
      "count": 340,
      "max": [
        0.9945226907730103,
        0.9878763556480408,
        1.0,
        1.0
      ],
      "min": [
        -0.9945226907730103,
        -0.9878763556480408,
        -1.0,
        -1.0
      ],
      "type": "VEC4"
    },
    {
      "bufferView": 1,
      "componentType": 5126,
      "count": 340,
      "max": [
        1.0,
        1.0
      ],
      "min": [
        0.0,
        0.0
      ],
      "type": "VEC2"
    },
    {
      "bufferView": 1,
      "byteOffset": 2720,
      "componentType": 5126,
      "count": 340,
      "max": [
        1.0,
        1.0
      ],
      "min": [
        0.0,
        0.0
      ],
      "type": "VEC2"
    },
    {
      "bufferView": 1,
      "byteOffset": 5440,
      "componentType": 5126,
      "count": 340,
      "max": [
        1.0,
        1.0
      ],
      "min": [
        0.0,
        0.0
      ],
      "type": "VEC2"
    },
    {
      "bufferView": 1,
      "byteOffset": 8160,
      "componentType": 5126,
      "count": 340,
      "max": [
        1.0,
        1.0
      ],
      "min": [
        0.0,
        0.0
      ],
      "type": "VEC2"
    },
    {
      "bufferView": 0,
      "componentType": 5125,
      "count": 1440,
      "type": "SCALAR"
    },
    {
      "bufferView": 2,
      "byteOffset": 8160,
      "componentType": 5126,
      "count": 1476,
      "max": [
        0.08490176498889923,
        0.043539758771657944,
        0.12654875218868256
      ],
      "min": [
        -0.08490176498889923,
        -0.0001869434490799904,
        -0.021263405680656433
      ],
      "type": "VEC3"
    },
    {
      "bufferView": 2,
      "byteOffset": 25872,
      "componentType": 5126,
      "count": 1476,
      "max": [
        0.9999946355819702,
        1.0,
        0.9999997615814209
      ],
      "min": [
        -0.9999946355819702,
        -1.0,
        -0.9999794960021973
      ],
      "type": "VEC3"
    },
    {
      "bufferView": 1,
      "byteOffset": 10880,
      "componentType": 5126,
      "count": 1476,
      "max": [
        0.9996987581253052,
        0.9996987581253052
      ],
      "min": [
        0.0003012535744346678,
        0.005633413791656494
      ],
      "type": "VEC2"
    },
    {
      "bufferView": 1,
      "byteOffset": 22688,
      "componentType": 5126,
      "count": 1476,
      "max": [
        0.9996987581253052,
        0.9996987581253052
      ],
      "min": [
        0.0003012535744346678,
        0.005633413791656494
      ],
      "type": "VEC2"
    },
    {
      "bufferView": 1,
      "byteOffset": 34496,
      "componentType": 5126,
      "count": 1476,
      "max": [
        0.9996987581253052,
        0.9996987581253052
      ],
      "min": [
        0.0003012535744346678,
        0.005633413791656494
      ],
      "type": "VEC2"
    },
    {
      "bufferView": 0,
      "byteOffset": 5760,
      "componentType": 5125,
      "count": 4332,
      "type": "SCALAR"
    },
    {
      "bufferView": 2,
      "byteOffset": 43584,
      "componentType": 5126,
      "count": 6048,
      "max": [
        2.221132278442383,
        0.6825928092002869,
        0.026296813040971756
      ],
      "min": [
        -2.1861400604248047,
        0.00030961635638959706,
        -0.023705124855041504
      ],
      "type": "VEC3"
    },
    {
      "bufferView": 2,
      "byteOffset": 116160,
      "componentType": 5126,
      "count": 6048,
      "max": [
        1.0,
        1.0,
        1.0
      ],
      "min": [
        -1.0,
        -1.0,
        -1.0
      ],
      "type": "VEC3"
    },
    {
      "bufferView": 1,
      "byteOffset": 46304,
      "componentType": 5126,
      "count": 6048,
      "max": [
        1.0,
        1.0
      ],
      "min": [
        0.0,
        1.0
      ],
      "type": "VEC2"
    },
    {
      "bufferView": 1,
      "byteOffset": 94688,
      "componentType": 5126,
      "count": 6048,
      "max": [
        1.0,
        1.0
      ],
      "min": [
        0.0,
        1.0
      ],
      "type": "VEC2"
    },
    {
      "bufferView": 0,
      "byteOffset": 23088,
      "componentType": 5125,
      "count": 6570,
      "type": "SCALAR"
    }
  ],
  "asset": {
    "extras": {
      "author": "geenee (https://sketchfab.com/geeneear)",
      "license": "CC-BY-4.0 (http://creativecommons.org/licenses/by/4.0/)",
      "source": "https://sketchfab.com/3d-models/cat-eye-glasses-e7d56a10cf044262bd48bd054410cb29",
      "title": "Cat Eye Glasses"
    },
    "generator": "Sketchfab-14.81.0",
    "version": "2.0"
  },
  "bufferViews": [
    {
      "buffer": 0,
      "byteLength": 49368,
      "name": "floatBufferViews",
      "target": 34963
    },
    {
      "buffer": 0,
      "byteLength": 143072,
      "byteOffset": 49368,
      "byteStride": 8,
      "name": "floatBufferViews",
      "target": 34962
    },
    {
      "buffer": 0,
      "byteLength": 188736,
      "byteOffset": 192440,
      "byteStride": 12,
      "name": "floatBufferViews",
      "target": 34962
    },
    {
      "buffer": 0,
      "byteLength": 5440,
      "byteOffset": 381176,
      "byteStride": 16,
      "name": "floatBufferViews",
      "target": 34962
    }
  ],
  "buffers": [
    {
      "byteLength": 386616,
      "uri": "scene.bin"
    }
  ],
  "images": [
    {
      "uri": "textures/Glass.001_baseColor.png"
    },
    {
      "uri": "textures/Glass.001_metallicRoughness.png"
    },
    {
      "uri": "textures/Glass.001_normal.jpeg"
    },
    {
      "uri": "textures/Material.002_baseColor.jpeg"
    },
    {
      "uri": "textures/Material.002_metallicRoughness.png"
    },
    {
      "uri": "textures/Material.001_metallicRoughness.png"
    }
  ],
  "materials": [
    {
      "alphaMode": "BLEND",
      "name": "Glass.001",
      "normalTexture": {
        "index": 2
      },
      "pbrMetallicRoughness": {
        "baseColorTexture": {
          "index": 0
        },
        "metallicRoughnessTexture": {
          "index": 1
        }
      }
    },
    {
      "doubleSided": true,
      "name": "Material.002",
      "pbrMetallicRoughness": {
        "baseColorTexture": {
          "index": 3
        },
        "metallicRoughnessTexture": {
          "index": 4
        }
      }
    },
    {
      "doubleSided": true,
      "name": "Material.001",
      "pbrMetallicRoughness": {
        "metallicRoughnessTexture": {
          "index": 5
        }
      }
    }
  ],
  "meshes": [
    {
      "name": "Object_0",
      "primitives": [
        {
          "attributes": {
            "NORMAL": 1,
            "POSITION": 0,
            "TANGENT": 2,
            "TEXCOORD_0": 3,
            "TEXCOORD_1": 4,
            "TEXCOORD_2": 5,
            "TEXCOORD_3": 6
          },
          "indices": 7,
          "material": 0,
          "mode": 4
        }
      ]
    },
    {
      "name": "Object_1",
      "primitives": [
        {
          "attributes": {
            "NORMAL": 9,
            "POSITION": 8,
            "TEXCOORD_0": 10,
            "TEXCOORD_1": 11,
            "TEXCOORD_2": 12
          },
          "indices": 13,
          "material": 1,
          "mode": 4
        }
      ]
    },
    {
      "name": "Object_2",
      "primitives": [
        {
          "attributes": {
            "NORMAL": 15,
            "POSITION": 14,
            "TEXCOORD_0": 16,
            "TEXCOORD_1": 17
          },
          "indices": 18,
          "material": 2,
          "mode": 4
        }
      ]
    }
  ],
  "nodes": [
    {
      "children": [
        1
      ],
      "matrix": [
        1.0,
        0.0,
        0.0,
        0.0,
        0.0,
        2.220446049250313e-16,
        -1.0,
        0.0,
        0.0,
        1.0,
        2.220446049250313e-16,
        0.0,
        0.0,
        0.0,
        0.0,
        1.0
      ],
      "name": "Sketchfab_model"
    },
    {
      "children": [
        2
      ],
      "name": "root"
    },
    {
      "children": [
        3
      ],
      "matrix": [
        1.0,
        0.0,
        0.0,
        0.0,
        0.0,
        2.220446049250313e-16,
        1.0,
        0.0,
        0.0,
        -1.0,
        2.220446049250313e-16,
        0.0,
        0.0,
        0.0,
        0.0,
        1.0
      ],
      "name": "GLTF_SceneRootNode"
    },
    {
      "children": [
        4,
        6,
        8
      ],
      "name": "Cat Eye Glass_3"
    },
    {
      "children": [
        5
      ],
      "name": "Frame_0"
    },
    {
      "mesh": 0,
      "name": "Object_5"
    },
    {
      "children": [
        7
      ],
      "name": "Glass_1"
    },
    {
      "mesh": 1,
      "name": "Object_7"
    },
    {
      "children": [
        9
      ],
      "matrix": [
        0.0002871293795669713,
        0.0,
        -0.004950263338661241,
        0.0,
        0.0,
        0.004958583507686853,
        0.0,
        0.0,
        0.004950263338661241,
        0.0,
        0.0002871293795669713,
        0.0,
        0.07792578637599945,
        0.03106171265244484,
        0.09974988549947739,
        1.0
      ],
      "name": "Logo_2"
    },
    {
      "mesh": 2,
      "name": "Object_9"
    }
  ],
  "samplers": [
    {
      "magFilter": 9729,
      "minFilter": 9987,
      "wrapS": 10497,
      "wrapT": 10497
    }
  ],
  "scene": 0,
  "scenes": [
    {
      "name": "Sketchfab_Scene",
      "nodes": [
        0
      ]
    }
  ],
  "textures": [
    {
      "sampler": 0,
      "source": 0
    },
    {
      "sampler": 0,
      "source": 1
    },
    {
      "sampler": 0,
      "source": 2
    },
    {
      "sampler": 0,
      "source": 3
    },
    {
      "sampler": 0,
      "source": 4
    },
    {
      "sampler": 0,
      "source": 5
    }
  ]
}
